<?xml version="1.0" encoding="utf-8"?><svg version="1.1" id="Layer_1" xmlns="http://www.w3.org/2000/svg" xmlns:xlink="http://www.w3.org/1999/xlink" x="0px" y="0px" viewBox="0 0 122.88 107.83" style="enable-background:new 0 0 122.88 107.83" xml:space="preserve"><style type="text/css">.st0{fill-rule:evenodd;clip-rule:evenodd;}</style><g><path class="st0" d="M122.34,45.03l-8.75,8.75l8.75,8.75l0.54,0.54l-0.54,0.54l-5.54,5.54l-0.54,0.54l-0.54-0.54l-8.75-8.75 l-8.75,8.75l-0.54,0.54l-0.54-0.54l-5.54-5.54l-0.54-0.54l0.54-0.54l8.75-8.75l-8.75-8.75l-0.54-0.54l0.54-0.54l5.54-5.54 l0.54-0.54l0.54,0.54l8.75,8.75l8.75-8.75l0.54-0.54l0.54,0.54l5.54,5.54l0.54,0.54L122.34,45.03L122.34,45.03L122.34,45.03z M0,107.83L0,90.4c9.33-4.15,37.88-12.04,39.23-23.46c0.3-2.58-5.78-12.4-7.17-17.11c-2.98-4.75-4.05-12.3-0.79-17.32 c1.3-2,0.74-9.27,0.74-12.02c0-27.33,47.88-27.34,47.88,0c0,3.46-0.79,9.81,1.08,12.52c3.14,4.54,1.52,12.6-1.13,16.81 c-1.7,4.95-8.15,14.31-7.6,17.11c2.05,10.43,28.54,17.43,36.87,21.14v19.75H0L0,107.83L0,107.83z"/></g></svg>